<!DOCTYPE svg PUBLIC "-//W3C//DTD SVG 1.1//EN" "http://www.w3.org/Graphics/SVG/1.1/DTD/svg11.dtd">

<!-- Uploaded to: SVG Repo, www.svgrepo.com, Transformed by: SVG Repo Mixer Tools -->
<svg fill="#AD242C" height="800px" width="800px" version="1.1" id="Layer_1" xmlns="http://www.w3.org/2000/svg" xmlns:xlink="http://www.w3.org/1999/xlink" viewBox="-51.2 -51.2 614.40 614.40" xml:space="preserve" stroke="#FED700" stroke-width="0.192">

<g id="SVGRepo_bgCarrier" stroke-width="0"/>

<g id="SVGRepo_tracerCarrier" stroke-linecap="round" stroke-linejoin="round" stroke="#CCCCCC" stroke-width="0.096"/>

<g id="SVGRepo_iconCarrier"> <g> <g> <path d="M501.333,181.337H382.507l62.08-106.56c2.987-5.12,1.173-11.627-3.84-14.613h-0.107L338.027,1.497 c-5.12-2.88-11.627-1.173-14.507,3.947l-62.187,109.12L199.253,6.297c-2.88-5.12-9.387-6.827-14.507-3.947L82.133,60.057 c-5.12,2.88-6.933,9.387-4.053,14.507c0,0,0,0.107,0.107,0.107l62.08,106.667h-129.6C4.8,181.337,0,186.137,0,192.004v128 c0,5.867,4.8,10.667,10.667,10.667h129.6l-62.08,106.56c-2.987,5.12-1.173,11.627,3.84,14.613h0.107l102.613,58.667 c1.6,0.96,3.413,1.387,5.333,1.387c3.84,0,7.36-2.027,9.28-5.333l61.973-109.12l62.08,108.267c2.88,5.12,9.387,6.827,14.507,3.947 l102.613-57.707c5.12-2.88,6.933-9.387,4.053-14.507c0,0,0-0.107-0.107-0.107L382.4,330.671h118.933 c5.867,0,10.667-4.8,10.667-10.667v-128C512,186.137,507.2,181.337,501.333,181.337z M490.667,309.338h-126.72 c-5.867,0-10.667,4.8-10.667,10.667c0,1.813,0.533,3.733,1.387,5.333l65.92,113.28l-83.947,47.253l-66.133-115.2 c-1.92-3.307-5.44-5.333-9.28-5.333c-3.84,0-7.36,2.027-9.28,5.333l-66.133,115.947l-83.947-48L168,325.338 c2.987-5.12,1.173-11.627-3.947-14.613c-1.6-0.96-3.413-1.387-5.333-1.387H21.333V202.671H158.72 c5.867,0,10.667-4.8,10.667-10.667c0-1.813-0.533-3.733-1.387-5.333L102.08,73.284l83.947-47.253l66.133,115.2 c1.92,3.307,5.44,5.333,9.28,5.333c3.84,0,7.36-2.027,9.28-5.333l66.133-115.947l83.947,48l-66.133,113.387 c-2.987,5.12-1.173,11.627,3.947,14.613c1.6,0.96,3.413,1.387,5.333,1.387h126.72V309.338z"/> </g> </g> </g>

</svg>